<svg xmlns="http://www.w3.org/2000/svg" viewBox="0 0 1024 1024" width="1024" height="1024">
  <rect width="1024" height="1024" rx="180" fill="#1B3A5C"/>
  <g transform="translate(0.000000,1024.000000) scale(0.100000,-0.100000)" fill="white">
    <path d="M3775 7516 c-54 -54 -83 -95 -114 -157 -66 -136 -76 -187 -76 -394 1
-221 15 -293 120 -615 101 -311 120 -400 120 -575 -1 -117 -4 -153 -24 -220
-24 -82 -62 -167 -88 -197 -9 -10 -11 -18 -4 -22 5 -4 27 24 47 61 93 166 119
281 111 488 -7 152 -27 259 -96 505 -86 305 -122 458 -131 550 -20 238 41 439
177 580 35 35 63 66 63 67 0 2 -7 3 -16 3 -9 0 -49 -33 -89 -74z"/>
<path d="M4127 7538 c-97 -96 -164 -216 -193 -345 -13 -59 -15 -111 -11 -266
6 -227 13 -262 108 -554 111 -339 123 -399 124 -588 0 -185 -12 -243 -75 -369
-22 -43 -38 -81 -35 -84 16 -16 107 160 137 264 20 68 23 101 22 239 0 178
-15 267 -84 515 -135 480 -144 523 -144 680 0 100 5 141 23 205 33 118 78 201
149 276 34 37 62 69 62 73 0 19 -36 -1 -83 -46z"/>
<path d="M4476 7549 c-146 -129 -226 -330 -226 -572 0 -193 34 -357 135 -655
92 -272 121 -424 112 -591 -7 -139 -22 -197 -78 -308 -67 -133 -46 -124 31 12
82 144 109 367 75 600 -9 56 -54 241 -100 411 -105 380 -118 447 -117 594 1
196 62 358 179 480 35 35 63 66 63 67 0 14 -36 -4 -74 -38z"/>
<path d="M8323 5595 l-21 -15 33 -56 c37 -62 60 -130 71 -211 6 -47 9 -51 35
-55 35 -5 84 14 93 37 11 30 6 120 -9 174 -11 34 -30 67 -59 96 -36 38 -48 45
-82 45 -22 0 -49 -7 -61 -15z"/>
<path d="M7537 5581 c-32 -5 -60 -11 -62 -13 -3 -3 8 -32 25 -65 32 -64 50
-139 50 -210 0 -44 1 -45 28 -38 185 47 481 68 656 46 49 -6 91 -10 92 -8 1 1
-2 25 -7 52 -12 64 -64 171 -92 190 -48 30 -187 47 -412 51 -121 1 -246 -1
-278 -5z"/>
<path d="M7275 5533 c-33 -9 -61 -17 -63 -18 -2 -2 11 -23 28 -48 41 -62 68
-142 76 -232 l7 -73 66 28 c62 27 66 31 75 70 17 77 -21 207 -77 268 -24 25
-30 26 -112 5z"/>
<path d="M7025 5451 c-172 -75 -290 -148 -805 -502 -469 -323 -784 -462 -1132
-501 l-108 -12 0 -47 c0 -57 -18 -77 -55 -61 l-25 12 0 326 c0 359 -3 380 -58
444 -63 74 -16 70 -761 70 l-669 0 -43 -33 c-24 -18 -54 -54 -68 -82 l-26 -49
0 -756 0 -755 28 -78 c115 -325 445 -497 953 -497 542 0 1046 221 1555 683
241 219 429 422 807 875 276 331 430 496 538 577 l74 56 0 84 c0 60 -6 100
-20 137 -18 49 -79 148 -90 148 -3 0 -45 -18 -95 -39z"/>
  </g>
</svg>